<svg width="172" height="187" viewBox="0 0 172 187" fill="none" xmlns="http://www.w3.org/2000/svg">
<path d="M148 -4.56989e-07C161.255 -2.04601e-07 172 10.7452 172 24L172 163C172 176.255 161.255 187 148 187L24 187C10.7452 187 -2.42745e-06 176.255 -1.0974e-06 163L1.28505e-05 24C1.41806e-05 10.7452 10.7452 -3.07049e-06 24 -2.8181e-06L148 -4.56989e-07Z" fill="#F43F5E"/>
<path d="M25.1815 114.236H12.7645L35.004 70.3743H47.421L25.1815 114.236ZM84.4974 113H72.8835V82.05H58.2425V71.6098H99.0767V82.05H84.4974V113ZM135.086 113H114.144V71.6098H135.086C148.739 71.6098 157.388 79.2083 157.388 92.3049C157.388 105.402 148.739 113 135.086 113ZM135.086 82.05H125.758V102.56H135.086C142.438 102.56 144.971 101.633 144.971 92.3049C144.971 82.9767 142.438 82.05 135.086 82.05Z" fill="white"/>
</svg>
